<svg width="1024" height="1024" viewBox="0 0 1024 1024" fill="none" xmlns="http://www.w3.org/2000/svg">
    <rect width="1024" height="1024" rx="200" fill="#2E74DC" />
    <rect x="83.5" y="83.5" width="857" height="857" rx="128.24" stroke="white" stroke-width="5" />
    <path
        d="M316.74 655.666C295.743 655.666 276.172 652.296 258.027 645.556C240.141 638.558 224.588 628.707 211.368 616.005C198.148 603.304 187.779 588.399 180.261 571.29C173.003 554.182 169.374 535.388 169.374 514.91C169.374 494.432 173.003 475.639 180.261 458.53C187.779 441.422 198.148 426.517 211.368 413.815C224.847 401.113 240.53 391.392 258.416 384.653C276.302 377.654 295.873 374.154 317.129 374.154C340.718 374.154 361.974 378.302 380.897 386.597C400.079 394.633 416.15 406.557 429.111 422.369L388.673 459.697C379.341 449.069 368.973 441.162 357.567 435.978C346.161 430.534 333.719 427.813 320.24 427.813C307.538 427.813 295.873 429.886 285.245 434.034C274.617 438.181 265.415 444.143 257.638 451.92C249.862 459.697 243.77 468.899 239.363 479.527C235.216 490.155 233.142 501.949 233.142 514.91C233.142 527.871 235.216 539.666 239.363 550.294C243.77 560.921 249.862 570.124 257.638 577.9C265.415 585.677 274.617 591.639 285.245 595.786C295.873 599.934 307.538 602.008 320.24 602.008C333.719 602.008 346.161 599.415 357.567 594.231C368.973 588.788 379.341 580.622 388.673 569.735L429.111 607.062C416.15 622.875 400.079 634.928 380.897 643.223C361.974 651.518 340.588 655.666 316.74 655.666ZM552.914 654.111C528.288 654.111 509.106 647.889 495.367 635.447C481.629 622.745 474.759 603.952 474.759 579.067V395.54H535.416V578.289C535.416 587.103 537.749 593.972 542.415 598.897C547.081 603.563 553.432 605.896 561.468 605.896C571.059 605.896 579.224 603.304 585.964 598.119L602.295 640.89C596.074 645.297 588.556 648.667 579.743 651C571.189 653.074 562.246 654.111 552.914 654.111ZM442.487 493.136V446.476H587.519V493.136H442.487ZM609.904 651L703.612 528.13L702.445 561.57L612.626 441.81H680.671L737.44 519.965L711.777 520.743L770.49 441.81H835.036L744.828 560.403V527.741L838.146 651H769.324L709.833 567.791L735.107 571.29L676.005 651H609.904Z"
        fill="white" />
</svg>